# xmcd
#
# Track frame offsets:
#	150
#	16285
#	32000
#	50437
#	64925
#	79225
#	91782
#	109795
#	126050
#	134905
#	147165
#	166917
#	182582
#	199292
#	213302
#	226482
#	240857
#	255405
#	264905
#	285612
#
# Disc length: 3998 seconds
#
# Revision: 1
# Processed by: cddbd v1.5.2PL0 Copyright (c) Steve Scherf et al.
# Submitted via: EasyCDDAExtractor 12.0.1.1
#
DISCID=150f9c14
DTITLE=Various Artist - Festival Bar '96 Superdance Battito
DYEAR=1996
DGENRE=Pop
TTITLE0=Alexia - Summer Is Crazy (Radio Mix)
TTITLE1=Robert Miles - Children
TTITLE2=DJ Dado - X-Files (DJ Dado Paranormal Activity Mix)
TTITLE3=Antico - Dreamer Hoomba Hoomba (Twilight Zone)
TTITLE4=Gina G - Ooh Aah... Just A Little Bit (Motiv8 Radio Edit)
TTITLE5=J.J. Brothers Feat. Asher Senator - Move It Up (77 Hot Mix)
TTITLE6=Elaine Mata Jones - Never Never
TTITLE7=R.A.F. By Picotto - Bakerloo Symphony (Mediterranean Progressive Mix)
TTITLE8=Livin Joy - Don't Stop Moving (Radio Mix)
TTITLE9=The Bump's - Lady Bug
TTITLE10=JT Company - Miracle
TTITLE11=Dana Dawson - Show Me (Eric Kupper Radio Mix)
TTITLE12=Mark Morrison - Return Of The Mack (Joe T. Vannelli Mix)
TTITLE13=Coolio - 1-2-3-4 Sumpin' New (Timber Mix)
TTITLE14=Ace Of Base - Never Gonna Say I'm Sorry
TTITLE15=2 Pac - California Love
TTITLE16=Stakka Bo - The Great Blondino
TTITLE17=Gabrielle - Give Me A Little More Time
TTITLE18=Corona - Megamix (Radio Version)
TTITLE19=Making Ends - Heartbeat Remix
EXTD=
EXTT0=
EXTT1=
EXTT2=
EXTT3=
EXTT4=
EXTT5=
EXTT6=
EXTT7=
EXTT8=
EXTT9=
EXTT10=
EXTT11=
EXTT12=
EXTT13=
EXTT14=
EXTT15=
EXTT16=
EXTT17=
EXTT18=
EXTT19=
PLAYORDER=
